General
Complete name : Sunrise.A.Song.Of.Two.Humans.1927.BRRip.H264.AAC.Gopo.mp4
Format : MPEG-4
Format profile : Base Media
Codec ID : isom
File size : 706 MiB
Duration : 1h 34mn
Overall bit rate : 1 046 Kbps
Encoded date : UTC 2009-11-12 11:35:44
Tagged date : UTC 2009-11-12 11:35:44
Video #1
ID : 1
Format : AVC
Format/Info : Advanced Video Codec
Format profile : High@L4.1
Format settings, CABAC : Yes
Format settings, ReFrames : 4 frames
Codec ID : avc1
Codec ID/Info : Advanced Video Coding
Duration : 1h 34mn
Bit rate mode : Variable
Bit rate : 891 Kbps
Maximum bit rate : 2 360 Kbps
Width : 848 pixels
Height : 720 pixels
Display aspect ratio : 1.178
Frame rate mode : Constant
Frame rate : 23.976 fps
Resolution : 24 bits
Colorimetry : 4:2:0
Scan type : Progressive
Bits/(Pixel*Frame) : 0.061
Stream size : 601 MiB (85%)
Writing library : x264 core 68 r1183M f21daff
Encoding settings : cabac=1 / ref=4 / deblock=1:-1:-1 / analyse=0x3:0x113 / me=umh / subme=8 / psy_rd=1.0:0.0 / mixed_ref=1 / me_range=16 / chroma_me=1 / trellis=2 / 8x8dct=1 / cqm=0 / deadzone=21,11 / chroma_qp_offset=-2 / threads=1 / nr=0 / decimate=1 / mbaff=0 / bframes=3 / b_pyramid=0 / b_adapt=2 / b_bias=0 / direct=3 / wpredb=1 / keyint=250 / keyint_min=25 / scenecut=40 / rc=2pass / bitrate=891 / ratetol=1.0 / qcomp=0.60 / qpmin=10 / qpmax=51 / qpstep=4 / cplxblur=20.0 / qblur=0.5 / vbv_maxrate=50000 / vbv_bufsize=50000 / ip_ratio=1.40 / pb_ratio=1.30 / aq=1:1.00
Encoded date : UTC 2009-11-11 18:09:27
Tagged date : UTC 2009-11-12 11:38:00
Audio #2
ID : 2
Format : AAC
Format/Info : Advanced Audio Codec
Format version : Version 4
Format profile : LC
Format settings, SBR : No
Codec ID : 40
Duration : 1h 34mn
Bit rate mode : Variable
Bit rate : 152 Kbps
Maximum bit rate : 168 Kbps
Channel(s) : 2 channels
Channel positions : L R
Sampling rate : 48.0 KHz
Resolution : 16 bits
Stream size : 102 MiB (15%)
Encoded date : UTC 2009-11-12 11:37:40
Tagged date : UTC 2009-11-12 11:38:00

PLOT

In this fable-morality subtitled "A Song of Two Humans", the "evil" temptress is a city woman who bewitches farmer Anses and convinces him to murder his neglected wife, Indre. After Anses comes to his senses - just as he is about to kill Indre - the married couple renew their love in the city.

Director: F.W. Murnau
CASTING

George O'Brien ... The Man
Janet Gaynor ... The Wife
Margaret Livingston ... The Woman From the City
Bodil Rosing ... The Maid
J. Farrell MacDonald ... The Photographer (as J. Farrell McDonald)
Ralph Sipperly ... The Barber
Jane Winton ... The Manicure Girl
Arthur Housman ... The Obtrusive Gentleman
Eddie Boland ... The Obliging Gentleman

SOURCE: Sunrise.A.Song.Of.Two.Humans.1927.720p.BluRay.x264-SiNNERS

Notes: For best performance I suggest you to use KMPlayer(find it with google) for playback